<?xml version="1.0" encoding="utf-8"?>
<!-- Generator: Adobe Illustrator 25.4.1, SVG Export Plug-In . SVG Version: 6.00 Build 0)  -->
<svg version="1.1" id="Camada_1" xmlns="http://www.w3.org/2000/svg" xmlns:xlink="http://www.w3.org/1999/xlink" x="0px" y="0px"
	 viewBox="0 0 300 100" style="enable-background:new 0 0 300 100;" xml:space="preserve">
<style type="text/css">
	.st0{fill:#244B5A;}
	.st1{fill:#F3C35E;}
	.st2{fill:#648EB1;}
	.st3{fill:#EFA693;}
	.st4{fill:#F6DFA4;}
	.st5{fill:#93A496;}
	.st6{fill:#BAD8EA;}
	.st7{fill:#42768D;}
	.st8{fill:#E7AF4F;}
	.st9{fill:#41695B;}
	.st10{fill:#A5B9C3;}
	.st11{fill:#C56C64;}
	.st12{fill:none;}
	.st13{font-family:'Montserrat-Regular';}
	.st14{font-size:5.0534px;}
	.st15{font-family:'Montserrat-MediumItalic';}
	.st16{font-family:'Montserrat-Bold';}
	.st17{font-family:'Montserrat-Light';}
</style>
<g>
	<g>
		<path class="st0" d="M226.6,76.59l-0.59-0.82c-0.09,0.01-0.17,0.02-0.24,0.02h-0.7v0.81h-0.18v-2.46h0.88
			c0.31,0,0.55,0.07,0.73,0.22c0.18,0.15,0.26,0.35,0.26,0.61c0,0.19-0.05,0.36-0.15,0.49c-0.1,0.13-0.24,0.23-0.43,0.28l0.62,0.86
			H226.6z M225.78,75.63c0.26,0,0.46-0.06,0.6-0.17c0.14-0.12,0.21-0.28,0.21-0.49c0-0.21-0.07-0.38-0.21-0.49
			c-0.14-0.12-0.34-0.17-0.6-0.17h-0.7v1.34H225.78z"/>
		<path class="st0" d="M230.6,76.43v0.16h-1.7v-2.46h1.65v0.16h-1.47v0.97h1.31v0.16h-1.31v1.01H230.6z"/>
		<path class="st0" d="M234.66,74.13l-1.1,2.46h-0.18l-1.1-2.46h0.2l1,2.23l1-2.23H234.66z"/>
		<path class="st0" d="M238.24,76.43v0.16h-1.7v-2.46h1.65v0.16h-1.47v0.97h1.31v0.16h-1.31v1.01H238.24z"/>
		<path class="st0" d="M240.5,76.52c-0.16-0.06-0.29-0.14-0.38-0.24l0.08-0.13c0.09,0.09,0.2,0.17,0.35,0.22
			c0.15,0.06,0.3,0.09,0.46,0.09c0.23,0,0.41-0.04,0.53-0.13c0.12-0.09,0.18-0.21,0.18-0.35c0-0.11-0.03-0.2-0.09-0.26
			c-0.06-0.07-0.14-0.12-0.24-0.15s-0.22-0.07-0.38-0.11c-0.18-0.04-0.33-0.09-0.43-0.13c-0.11-0.04-0.2-0.11-0.28-0.2
			c-0.08-0.09-0.11-0.21-0.11-0.35c0-0.12,0.03-0.23,0.09-0.33c0.06-0.1,0.16-0.18,0.29-0.24c0.13-0.06,0.29-0.09,0.49-0.09
			c0.14,0,0.27,0.02,0.4,0.06c0.13,0.04,0.24,0.09,0.34,0.16l-0.07,0.14c-0.1-0.07-0.21-0.12-0.33-0.15
			c-0.12-0.04-0.24-0.05-0.35-0.05c-0.23,0-0.4,0.05-0.52,0.14c-0.12,0.09-0.18,0.21-0.18,0.36c0,0.11,0.03,0.2,0.09,0.26
			c0.06,0.07,0.14,0.12,0.24,0.15c0.09,0.04,0.22,0.07,0.38,0.11c0.18,0.04,0.32,0.09,0.43,0.13c0.11,0.04,0.2,0.11,0.28,0.19
			c0.08,0.09,0.11,0.2,0.11,0.35c0,0.12-0.03,0.23-0.1,0.33c-0.06,0.1-0.16,0.18-0.3,0.24c-0.13,0.06-0.3,0.09-0.49,0.09
			C240.83,76.61,240.66,76.58,240.5,76.52z"/>
		<path class="st0" d="M244.42,74.29h-0.89v-0.16h1.95v0.16h-0.89v2.3h-0.18V74.29z"/>
		<path class="st0" d="M247.41,74.13h0.18v2.46h-0.18V74.13z"/>
		<path class="st0" d="M252.25,76.59l0-2.11l-1.03,1.78h-0.09l-1.03-1.77v2.1h-0.18v-2.46h0.15l1.1,1.9l1.1-1.9h0.15l0,2.46H252.25z
			"/>
		<path class="st0" d="M256.46,76.43v0.16h-1.7v-2.46h1.65v0.16h-1.47v0.97h1.31v0.16h-1.31v1.01H256.46z"/>
		<path class="st0" d="M260.59,74.13v2.46h-0.15l-1.68-2.14v2.14h-0.18v-2.46h0.15l1.67,2.14v-2.14H260.59z"/>
		<path class="st0" d="M263.4,74.29h-0.89v-0.16h1.95v0.16h-0.89v2.3h-0.18V74.29z"/>
		<path class="st0" d="M266.74,76.45c-0.19-0.11-0.35-0.26-0.46-0.45c-0.11-0.19-0.17-0.4-0.17-0.64c0-0.23,0.06-0.45,0.17-0.64
			c0.11-0.19,0.26-0.34,0.46-0.45c0.19-0.11,0.41-0.16,0.65-0.16c0.24,0,0.46,0.05,0.65,0.16c0.19,0.11,0.35,0.26,0.46,0.45
			c0.11,0.19,0.17,0.4,0.17,0.64c0,0.24-0.06,0.45-0.17,0.64c-0.11,0.19-0.26,0.34-0.46,0.45c-0.19,0.11-0.41,0.16-0.65,0.16
			C267.15,76.61,266.93,76.56,266.74,76.45z M267.95,76.31c0.17-0.09,0.3-0.22,0.39-0.39c0.1-0.17,0.14-0.35,0.14-0.55
			c0-0.2-0.05-0.39-0.14-0.55c-0.1-0.17-0.23-0.29-0.39-0.39c-0.17-0.09-0.35-0.14-0.56-0.14c-0.21,0-0.39,0.05-0.56,0.14
			c-0.17,0.09-0.3,0.22-0.4,0.39c-0.1,0.17-0.14,0.35-0.14,0.55c0,0.2,0.05,0.39,0.14,0.55c0.1,0.17,0.23,0.29,0.4,0.39
			c0.17,0.09,0.35,0.14,0.56,0.14C267.6,76.45,267.79,76.4,267.95,76.31z"/>
		<path class="st0" d="M270.9,76.52c-0.16-0.06-0.29-0.14-0.38-0.24l0.08-0.13c0.09,0.09,0.2,0.17,0.35,0.22
			c0.15,0.06,0.3,0.09,0.46,0.09c0.23,0,0.41-0.04,0.53-0.13c0.12-0.09,0.18-0.21,0.18-0.35c0-0.11-0.03-0.2-0.09-0.26
			c-0.06-0.07-0.14-0.12-0.24-0.15c-0.09-0.04-0.22-0.07-0.38-0.11c-0.18-0.04-0.33-0.09-0.43-0.13c-0.11-0.04-0.2-0.11-0.28-0.2
			c-0.08-0.09-0.11-0.21-0.11-0.35c0-0.12,0.03-0.23,0.09-0.33c0.06-0.1,0.16-0.18,0.29-0.24s0.29-0.09,0.49-0.09
			c0.14,0,0.27,0.02,0.4,0.06c0.13,0.04,0.24,0.09,0.34,0.16l-0.07,0.14c-0.1-0.07-0.21-0.12-0.33-0.15
			c-0.12-0.04-0.24-0.05-0.35-0.05c-0.23,0-0.4,0.05-0.52,0.14c-0.12,0.09-0.18,0.21-0.18,0.36c0,0.11,0.03,0.2,0.09,0.26
			c0.06,0.07,0.14,0.12,0.24,0.15c0.09,0.04,0.22,0.07,0.38,0.11c0.18,0.04,0.32,0.09,0.43,0.13c0.11,0.04,0.2,0.11,0.28,0.19
			c0.08,0.09,0.11,0.2,0.11,0.35c0,0.12-0.03,0.23-0.1,0.33c-0.06,0.1-0.16,0.18-0.3,0.24c-0.13,0.06-0.3,0.09-0.49,0.09
			C271.24,76.61,271.07,76.58,270.9,76.52z"/>
	</g>
	<g>
		<g>
			<g>
				<path class="st0" d="M232.91,69.92c-0.31,0-0.54-0.09-0.69-0.26c-0.15-0.17-0.23-0.42-0.23-0.74v-6.06h-1.08v6.15
					c0,0.58,0.16,1.02,0.47,1.34c0.31,0.32,0.76,0.48,1.33,0.48c0.27,0,0.53-0.04,0.77-0.13l-0.06-0.88
					C233.27,69.88,233.09,69.92,232.91,69.92z"/>
				<path class="st0" d="M234.55,62.74c-0.21,0-0.38,0.07-0.52,0.21c-0.14,0.14-0.21,0.3-0.21,0.5c0,0.19,0.07,0.36,0.21,0.49
					c0.14,0.13,0.31,0.2,0.52,0.2c0.21,0,0.38-0.07,0.52-0.21c0.14-0.14,0.21-0.31,0.21-0.51c0-0.19-0.07-0.36-0.21-0.49
					C234.93,62.81,234.75,62.74,234.55,62.74z"/>
				<rect x="234.01" y="64.82" class="st0" width="1.08" height="5.94"/>
				<path class="st0" d="M237.15,69.87l0.01-0.01l3.25-4.03c0.02-0.03,0.05-0.06,0.07-0.09c0.18-0.23,0.18-0.39,0.18-0.61
					c0,0,0,0,0,0v-0.01v-0.3h-4.82v0.88v0h3.44l-0.01,0.01l-3.25,4.03c-0.02,0.03-0.05,0.06-0.07,0.09
					c-0.18,0.23-0.18,0.39-0.18,0.61c0,0,0,0,0,0v0.01v0.3h4.97v-0.88v0H237.15z"/>
				<path class="st0" d="M245.94,65.72c-0.24-0.31-0.54-0.55-0.9-0.71c-0.36-0.16-0.75-0.24-1.18-0.24c-0.58,0-1.09,0.13-1.55,0.38
					c-0.46,0.25-0.81,0.61-1.07,1.06c-0.26,0.46-0.39,0.98-0.39,1.58c0,0.6,0.13,1.13,0.39,1.59c0.26,0.46,0.61,0.82,1.07,1.07
					c0.46,0.25,0.97,0.38,1.55,0.38c0.44,0,0.84-0.09,1.21-0.26c0.37-0.17,0.67-0.42,0.91-0.75v0.94h1.03v-5.94h-1.08V65.72z
					 M245.69,68.88c-0.17,0.32-0.41,0.56-0.72,0.74c-0.31,0.18-0.65,0.26-1.02,0.26c-0.38,0-0.72-0.09-1.02-0.26
					c-0.3-0.18-0.54-0.42-0.72-0.74c-0.18-0.32-0.26-0.68-0.26-1.09c0-0.41,0.09-0.77,0.26-1.09c0.18-0.32,0.41-0.56,0.72-0.73
					c0.3-0.17,0.64-0.26,1.02-0.26c0.37,0,0.71,0.09,1.02,0.26c0.31,0.17,0.55,0.42,0.72,0.73c0.17,0.32,0.26,0.68,0.26,1.09
					C245.95,68.2,245.86,68.56,245.69,68.88z"/>
				<path class="st0" d="M252.73,65.15c-0.46-0.25-0.97-0.38-1.55-0.38c-0.43,0-0.82,0.08-1.18,0.24c-0.36,0.16-0.66,0.4-0.9,0.71
					v-2.86h-1.08v7.9h1.03v-0.94c0.24,0.33,0.54,0.58,0.91,0.75c0.37,0.17,0.77,0.26,1.21,0.26c0.57,0,1.09-0.13,1.55-0.38
					c0.46-0.25,0.81-0.61,1.07-1.07c0.26-0.46,0.39-0.99,0.39-1.59c0-0.6-0.13-1.12-0.39-1.58
					C253.54,65.76,253.18,65.4,252.73,65.15z M252.83,68.88c-0.18,0.32-0.41,0.56-0.72,0.74c-0.3,0.18-0.64,0.26-1.03,0.26
					c-0.37,0-0.71-0.09-1.02-0.26c-0.31-0.18-0.55-0.42-0.72-0.74c-0.17-0.32-0.26-0.68-0.26-1.09c0-0.41,0.09-0.77,0.26-1.09
					c0.17-0.32,0.41-0.56,0.72-0.73c0.31-0.17,0.65-0.26,1.02-0.26c0.38,0,0.72,0.09,1.03,0.26c0.3,0.17,0.54,0.42,0.72,0.73
					c0.18,0.32,0.26,0.68,0.26,1.09C253.1,68.2,253.01,68.56,252.83,68.88z"/>
				<path class="st0" d="M259.14,65.15c-0.44-0.26-0.95-0.39-1.52-0.39c-0.57,0-1.08,0.13-1.53,0.39c-0.45,0.26-0.81,0.62-1.06,1.08
					c-0.26,0.46-0.39,0.98-0.39,1.56c0,0.58,0.13,1.11,0.4,1.57c0.26,0.46,0.64,0.82,1.13,1.08c0.49,0.26,1.04,0.39,1.67,0.39
					c0.49,0,0.94-0.08,1.34-0.25c0.4-0.16,0.73-0.4,1-0.72l-0.59-0.69c-0.43,0.48-1,0.72-1.71,0.72c-0.58,0-1.07-0.16-1.46-0.48
					c-0.39-0.32-0.62-0.74-0.69-1.26h4.82c0.01-0.13,0.02-0.24,0.02-0.32c0-0.6-0.13-1.13-0.38-1.59
					C259.93,65.77,259.58,65.41,259.14,65.15z M255.73,67.26c0.08-0.46,0.27-0.83,0.59-1.12c0.35-0.31,0.78-0.47,1.29-0.47
					s0.95,0.16,1.29,0.48c0.32,0.29,0.52,0.67,0.59,1.11H255.73z"/>
				<path class="st0" d="M272.23,69.71c-0.21,0.12-0.39,0.19-0.58,0.19c-0.33,0-0.44-0.25-0.44-0.62l0-2.1
					c0-1.36-0.65-2.42-2.06-2.42c-0.85,0-1.5,0.35-1.88,0.92l0-2.83l-1.09,0v1.4l-0.01-0.01c-0.18,0.21-0.42,0.35-0.7,0.44
					c-0.28,0.09-0.67,0.13-1.15,0.13h-1.65v-1.96h-1.06v1.96h-1.18v0.89h1.18v3.41c0.01,0.39,0.09,0.7,0.24,0.94
					c0.15,0.24,0.36,0.41,0.61,0.52c0.26,0.11,0.55,0.17,0.87,0.17c0.32,0,0.61-0.05,0.88-0.14c0.27-0.1,0.49-0.22,0.67-0.38
					l-0.32-0.85c-0.14,0.13-0.28,0.23-0.44,0.3c-0.16,0.08-0.35,0.11-0.56,0.11c-0.25,0-0.47-0.07-0.63-0.21
					c-0.17-0.14-0.25-0.36-0.25-0.65v-3.23h1.63c0.62,0,1.1-0.06,1.44-0.18c0.15-0.06,0.3-0.13,0.43-0.22v5.44h1.09l0-3.81
					c0.19-0.6,0.73-1.18,1.51-1.18c0.9,0,1.35,0.64,1.35,1.57v2.17c0,0.9,0.38,1.31,1.12,1.31c0.42,0,0.82-0.12,1.06-0.25
					L272.23,69.71z"/>
			</g>
		</g>
		<path class="st0" d="M227.67,63.7L227.67,63.7l2.31,0v-0.93h-2.31v0c-0.04,0-0.07,0-0.11,0c-1.5,0-2.44,0.8-2.44,2.08
			c0,0.7,0.3,1.27,0.86,1.64l0.07,0.05l-0.07,0.04c-0.7,0.4-1.09,1.09-1.09,1.94c0,1.42,1.02,2.3,2.67,2.3c0.04,0,0.07,0,0.11,0
			h2.31v-0.93h-2.31v0c-1.1-0.01-1.82-0.57-1.82-1.43c0-0.9,0.67-1.43,1.8-1.43h1.88v-0.94h-1.88c-1,0-1.55-0.41-1.55-1.16
			C226.11,64.15,226.68,63.71,227.67,63.7z"/>
	</g>
</g>
<g>
	<rect x="0.63" y="87.34" class="st1" width="7.47" height="13.23"/>
	<rect x="10.6" y="87.33" class="st1" width="3.82" height="13.24"/>
	<rect x="17.35" y="87.33" class="st2" width="7.08" height="13.24"/>
	<rect x="27.41" y="87.33" class="st3" width="3.63" height="13.24"/>
	<rect x="57.58" y="87.33" class="st3" width="17.19" height="13.24"/>
	<rect x="77.94" y="87.33" class="st4" width="3.48" height="13.24"/>
	<rect x="101.26" y="87.33" class="st4" width="3.48" height="13.24"/>
	<rect x="84.6" y="87.33" class="st3" width="3.48" height="13.24"/>
	<rect x="98.13" y="87.33" class="st3" width="3.48" height="13.24"/>
	<rect x="104.74" y="87.33" class="st3" width="3.48" height="13.24"/>
	<rect x="118.45" y="87.33" class="st5" width="3.48" height="13.24"/>
	<rect x="125.41" y="87.33" class="st5" width="3.48" height="13.24"/>
	<rect x="142.31" y="87.33" class="st6" width="3.48" height="13.24"/>
	<rect x="145.33" y="87.33" class="st7" width="3.48" height="13.24"/>
	<rect x="167.51" y="87.33" class="st8" width="3.48" height="13.24"/>
	<rect x="191.4" y="87.33" class="st3" width="3.48" height="13.24"/>
	<rect x="214.82" y="87.33" class="st3" width="25.83" height="13.24"/>
	<rect x="205.35" y="87.33" class="st9" width="3.48" height="13.24"/>
	<rect x="211.34" y="87.33" class="st9" width="3.48" height="13.24"/>
	<rect x="240.65" y="87.33" class="st5" width="3.48" height="13.24"/>
	<rect x="244.13" y="87.33" class="st7" width="3.48" height="13.24"/>
	<rect x="250.61" y="87.33" class="st4" width="3.48" height="13.24"/>
	<rect x="254.09" y="87.33" class="st10" width="3.48" height="13.24"/>
	<rect x="296.48" y="87.33" class="st10" width="3.52" height="13.24"/>
	<rect x="257.08" y="87.33" class="st9" width="14.3" height="13.24"/>
	<rect x="286.15" y="87.33" class="st9" width="10.33" height="13.24"/>
	<rect x="247.61" y="87.33" class="st5" width="3.48" height="13.24"/>
	<rect x="198.41" y="87.33" class="st6" width="6.93" height="13.24"/>
	<rect x="183.65" y="87.33" class="st3" width="4.48" height="13.24"/>
	<rect x="148.58" y="87.33" class="st6" width="9.92" height="13.24"/>
	<rect x="174" y="87.33" class="st9" width="9.92" height="13.24"/>
	<rect x="128.89" y="87.33" class="st4" width="6.88" height="13.24"/>
	<rect x="157.99" y="87.33" class="st8" width="6.88" height="13.24"/>
	<rect x="121.93" y="87.33" class="st11" width="3.48" height="13.24"/>
	<rect x="135.26" y="87.33" class="st7" width="7.04" height="13.24"/>
	<rect x="108.22" y="87.33" class="st7" width="10.23" height="13.24"/>
	<rect x="88.08" y="87.33" class="st11" width="10.05" height="13.24"/>
	<rect x="48.07" y="87.33" class="st9" width="9.55" height="13.24"/>
	<rect x="40.8" y="87.33" class="st6" width="7.27" height="13.24"/>
	<rect x="34.19" y="87.33" class="st3" width="4.33" height="13.24"/>
	<rect x="24.43" y="87.33" class="st9" width="3.31" height="13.24"/>
	<path class="st1" d="M270.93,88.28v12.39h2.33V88.42c0-3.4,2.76-6.16,6.16-6.16s6.16,2.76,6.16,6.16v12.25h2.33V88.28
		c0-4.69-3.8-8.49-8.49-8.49S270.93,83.59,270.93,88.28"/>
	<rect x="0.63" y="-111.72" class="st12" width="299.37" height="212.29"/>
</g>
<text transform="matrix(1 0 0 1 224.6469 51.6808)"><tspan x="0" y="0" class="st0 st13 st14">Materializamos</tspan><tspan x="38.56" y="0" class="st0 st15 st14"> </tspan><tspan x="39.92" y="0" class="st0 st16 st14">sonhos</tspan><tspan x="58.89" y="0" class="st0 st17 st14"> </tspan><tspan x="0" y="6.06" class="st0 st17 st14">e </tspan><tspan x="4.32" y="6.06" class="st0 st13 st14">entregamos </tspan><tspan x="36.69" y="6.06" class="st0 st16 st14">felicidade. </tspan></text>
</svg>
